<?xml version="1.0" encoding="UTF-8"?>
<svg xmlns="http://www.w3.org/2000/svg" viewBox="0 0 600 600" width="600" height="600">
  <defs>
    <pattern id="dots" patternUnits="userSpaceOnUse" width="40" height="40">
      <circle cx="20" cy="20" r="1.4" fill="#EADFD8"/>
    </pattern>
  </defs>
  <rect width="600" height="600" fill="#FFFAF7"/>
  <rect width="600" height="600" fill="url(#dots)"/>
  <g transform="translate(300 300)">
    <circle r="118" fill="#FB4D08"/>
    <circle r="106" fill="#FFFAF7"/>
    <circle r="42" fill="#FB4D08"/>
    <g transform="rotate(-30)">
      <rect x="-2" y="-118" width="4" height="28" fill="#FB4D08"/>
      <g transform="rotate(20)"><rect x="-2" y="-118" width="4" height="28" fill="#FB4D08"/></g>
      <g transform="rotate(40)"><rect x="-2" y="-118" width="4" height="28" fill="#FB4D08"/></g>
      <g transform="rotate(60)"><rect x="-2" y="-118" width="4" height="28" fill="#FB4D08"/></g>
      <g transform="rotate(80)"><rect x="-2" y="-118" width="4" height="28" fill="#FB4D08"/></g>
      <g transform="rotate(100)"><rect x="-2" y="-118" width="4" height="28" fill="#FB4D08"/></g>
      <g transform="rotate(120)"><rect x="-2" y="-118" width="4" height="28" fill="#FB4D08"/></g>
      <g transform="rotate(140)"><rect x="-2" y="-118" width="4" height="28" fill="#FB4D08"/></g>
      <g transform="rotate(160)"><rect x="-2" y="-118" width="4" height="28" fill="#FB4D08"/></g>
      <g transform="rotate(180)"><rect x="-2" y="-118" width="4" height="28" fill="#FB4D08"/></g>
      <g transform="rotate(200)"><rect x="-2" y="-118" width="4" height="28" fill="#FB4D08"/></g>
      <g transform="rotate(220)"><rect x="-2" y="-118" width="4" height="28" fill="#FB4D08"/></g>
      <g transform="rotate(240)"><rect x="-2" y="-118" width="4" height="28" fill="#FB4D08"/></g>
    </g>
    <text x="0" y="8" font-family="Helvetica, Arial, sans-serif" font-size="34" font-weight="900" fill="#313E48" text-anchor="middle">TODO</text>
    <text x="0" y="46" font-family="Helvetica, Arial, sans-serif" font-size="34" font-weight="900" fill="#FB4D08" text-anchor="middle">HUINCHA</text>
  </g>
  <text x="300" y="560" font-family="Helvetica, Arial, sans-serif" font-size="11" font-weight="600" fill="#6C6B65" text-anchor="middle" letter-spacing="3">SIN IMAGEN DISPONIBLE</text>
</svg>